<svg width="512" height="512" viewBox="0 0 512 512" xmlns="http://www.w3.org/2000/svg">
  <defs>
    <linearGradient id="g" x1="0" y1="0" x2="1" y2="1">
      <stop offset="0%" stop-color="#65D2FF"/>
      <stop offset="100%" stop-color="#1B86FF"/>
    </linearGradient>
  </defs>
  <rect width="512" height="512" fill="transparent"/>
  <g transform="translate(48,152)">
    <path d="M24 16C26 6 34 0 44 0h54c10 0 17 9 15 19l-13 69c-2 10-10 17-20 17H27c-10 0-17-9-15-19z" fill="url(#g)"/>
    <path d="M124 34c1-7 7-12 14-12h31c8 0 13 7 12 15l-9 49c-1 7-7 12-14 12h-31c-8 0-13-7-12-15z" fill="url(#g)"/>
    <path d="M13 126c2-10 10-17 20-17h53c10 0 17 9 15 19l-10 53c-1 8-8 14-16 14H18c-10 0-17-9-15-19z" fill="url(#g)"/>
    <path d="M103 202l70-50c10-7 23 2 20 14l-11 54a17 17 0 0 1-7 11l-58 41c-11 8-25-2-22-15z" fill="url(#g)"/>

    <g transform="translate(200,115)">
      <text x="0" y="0" font-family="Segoe UI,Arial,sans-serif" font-size="78" font-weight="800" fill="#121C33">SST</text>
      <text x="170" y="0" font-family="Segoe UI,Arial,sans-serif" font-size="86" font-style="italic" font-weight="900" fill="#1890FF">iPOS</text>
    </g>
  </g>
</svg>
